<?xml version="1.0" encoding="UTF-8"?>
<svg id="Layer_1" xmlns="http://www.w3.org/2000/svg" version="1.1" xmlns:xlink="http://www.w3.org/1999/xlink" viewBox="0 0 362.3 133.1">
  <!-- Generator: Adobe Illustrator 30.3.0, SVG Export Plug-In . SVG Version: 2.1.3 Build 182)  -->
  <defs>
    <style>
      .st0 {
        mask: url(#mask-1);
      }

      .st1 {
        mask: url(#mask);
      }

      .st2 {
        fill: url(#linear-gradient1);
      }

      .st3, .st4 {
        fill: none;
      }

      .st5 {
        fill: #818586;
      }

      .st6 {
        fill: #023552;
      }

      .st7 {
        fill: #1d1d1b;
      }

      .st8 {
        fill: url(#linear-gradient);
      }

      .st9 {
        clip-path: url(#clippath);
      }

      .st4 {
        stroke: #b3c2cb;
        stroke-width: 3.2px;
      }
    </style>
    <linearGradient id="linear-gradient" x1="-2.6" y1="137.3" x2="-1.6" y2="137.3" gradientTransform="translate(-7912.7 184.9) rotate(90) scale(58.9 -58.9)" gradientUnits="userSpaceOnUse">
      <stop offset="0" stop-color="#fff"/>
      <stop offset="1" stop-color="#000"/>
    </linearGradient>
    <mask id="mask" x="-2.6" y="-4.3" width="368.5" height="141.7" maskUnits="userSpaceOnUse">
      <rect class="st8" x="-2.6" y="-4.3" width="368.5" height="141.7"/>
    </mask>
    <clipPath id="clippath">
      <rect class="st3" y="65.5" width="276.1" height="5.3"/>
    </clipPath>
    <linearGradient id="linear-gradient1" x1="-2.6" y1="137" x2="-1.6" y2="137" gradientTransform="translate(-44219.4 859.5) rotate(90) scale(324 -324)" gradientUnits="userSpaceOnUse">
      <stop offset="0" stop-color="#fff"/>
      <stop offset="1" stop-color="#000"/>
    </linearGradient>
    <mask id="mask-1" x="-68.3" y="-175.2" width="499.9" height="483.4" maskUnits="userSpaceOnUse">
      <rect class="st2" x="-10.7" y="-95.2" width="384.8" height="323.6" transform="translate(-6.2 113) rotate(-34)"/>
    </mask>
  </defs>
  <path class="st7" d="M8.5,92.4l5.3,4.2c1,.9,1.6,2.1,1.6,3.7v29.3s3.4-4,3.4-4v-28.1c0-.9-.1-1.7-.4-2.5-.2-.8-1.1-1.9-2.5-3.1l-4.3-4.3-3,4.9ZM31.3,94.2c-.8-1.2-2.9-3.4-6.3-6.7l-3,4.8c3.9,2.7,6.1,4.4,6.6,5.2.5.8.7,1.6.7,2.4,0,1.4-.8,3.4-2.2,6.2-.8,1.6-1.4,3-1.9,4.1l2.5-1.1c3.2-4.9,4.8-8.6,4.8-10.9s-.4-2.8-1.2-4M47.8,119.3l3.1-4.2v-20.7h2.3l1.8-4.9h-4.1v-2.9s-2.3,2.9-2.3,2.9h-8.4v-2.9s-2.4,3.6-2.4,3.6c-.8,1.3-1.6,2.7-2.3,4.1h12.3v24.9ZM79.9,94.2c-.8-1.2-2.9-3.4-6.3-6.7l-3,4.8c3.9,2.7,6.1,4.4,6.6,5.2.5.8.7,1.6.7,2.4,0,1.4-.8,3.4-2.2,6.2-.8,1.6-1.4,3-1.9,4.1l2.5-1.1c3.2-4.9,4.8-8.6,4.8-10.9s-.4-2.8-1.2-4M98,117.9c3.7-5.6,5.5-11.3,5.5-17s-.7-6.3-2.2-8.3c-1.5-2-3.4-3-5.9-3h-5.5v-2.9c-2.1,3-3.7,5.6-4.8,7.7h9.2c3.9,0,5.9,3.2,5.9,9.5s-.6,6.6-1.8,9.2h-11.1l-2.8,4.9h13.5ZM116.1,94.4c1.3,0,2.3.5,2.9,1.5.6,1,.9,2.8.9,5.6v17.9s3.4-4.8,3.4-4.8v-15.6c0-2.9-.6-5.2-1.9-6.9-1.3-1.6-3-2.5-5.2-2.5h-5.4v-2.9c-1.4,1.7-3,4.3-4.8,7.7h10ZM126.9,92.4l4.3,3.4c.9.7,1.6,1.3,1.9,1.9.4.5.5,1.4.5,2.6v19s3.4-3.9,3.4-3.9v-17.9c0-1.9-.7-3.6-2-4.9l-5.2-5.1-3,4.9ZM141.1,91.8c2.3,3.8,3.9,7.2,4.8,10,.4,1.2.9,3,1.7,5.5.8,2.4,1.2,4.1,1.4,4.8-1.2.8-2.5,1.4-3.8,1.9-1.1.5-2.1,1-3.2,1.4l-1.6,6.2c.7-.5,1.4-1,2.3-1.5,5.5-3.4,9.2-5.9,10.9-7.5,1.7-1.6,3-3.6,3.8-6.1.9-2.5,1.3-5.8,1.3-9.8s-.3-6.4-.9-9.7l-4.1,4.8c1.4,4.5,2.1,8.3,2.1,11.5s-.8,3.8-2.3,5.6l-2,1.8c-.5-1.8-1.2-4.7-2.3-8.8-.9-3.5-2.4-8.5-4.7-15l-3.4,4.8ZM186.7,119.3l3.1-4.2v-20.7h2.3l1.8-4.9h-4.1v-2.9s-2.3,2.9-2.3,2.9h-8.4v-2.9s-2.4,3.6-2.4,3.6c-.8,1.3-1.6,2.7-2.3,4.1h12.3v24.9ZM206.4,94.4c1.3,0,2.3.5,2.9,1.5.6,1,.9,2.8.9,5.6v17.9s3.4-4.8,3.4-4.8v-15.6c0-2.9-.6-5.2-1.9-6.9-1.3-1.6-3-2.5-5.2-2.5h-5.4v-2.9c-1.4,1.7-3,4.3-4.8,7.7h10ZM220.3,87.5l-3,4.9c.3.8.8,2.3,1.4,4.3.3,1.1.6,2.2.9,3.4.3,1.2.8,3.2,1.4,5.9l1.8,8.3c.7,3,1.7,4.4,3.2,4.4,2.8,0,5.5-1.4,8.1-4.1,2.6-2.7,4.5-5.5,5.6-8.2,1.2-2.7,1.7-6.2,1.7-10.3s-.4-4.9-1.1-8.6l-3.7,5.2c.9,4.3,1.3,7.3,1.3,9s-.6,4.4-1.7,6c-1.2,1.6-2.6,3-4.4,4.3-1.7,1.3-3.3,1.9-4.6,1.9s-1.2-.1-1.5-.4c-.2-.2-.4-.8-.6-1.6l-.6-3.5c4.8-3.8,7.2-8.5,7.2-14.1s-.3-4.1-.9-6.9l-3.4,4.3c.6,2.1.9,4.2.9,6.2s-.3,3.1-1,4.1c-.7,1-1.8,2-3.3,3l-1.1-7.1c-.4-2.5-.8-4.4-1.1-5.6-.4-1.5-.9-3.2-1.7-4.9M250.1,91.9c-.7-2.3-1.3-3.9-2-4.7l-2.8,5.2c2.1,3.2,3.2,6.2,3.2,9.1s-.7,5-2,10.4c-.6,2.4-1.2,4.9-1.8,7.5l3.7-3.6c.9-4.1,1.8-7.7,2.7-11,2.3-7.3,4.7-11,7.1-11s4.2,1.5,5.3,4.4c1.2,2.9,1.7,6.8,1.7,11.5s0,2.2-.2,3.4h-10.7l-2.8,4.9h13l2.1-4.4c.6-1.3.9-3.1.9-5.5,0-12.8-2.6-19.3-7.8-19.3s-4,1.2-5.5,3.7c-1.5,2.5-2.6,5.1-3.1,7.8,0-3.2-.3-6-1-8.3"/>
  <g class="st1">
    <g class="st9">
      <line class="st4" x1="275.1" y1="68.1" x2="1" y2="68.1"/>
    </g>
  </g>
  <path class="st6" d="M15.5,34H5.1V11.5h10.4v22.5ZM34.8,49.5h-10.4V11.5h10.4v38ZM48,49.5l10.5-30h-17.2V5.1h9.9v6.3h20.6l-12.9,38h-10.9ZM110.1,11.5v38h-10.3v-30h-22.5v-8h32.9ZM77.3,27.7h10.4v21.7h-10.4v-21.7ZM141.2,49.5l10.5-30h-17.2V5.1h9.9v6.3h20.6l-12.9,38h-10.9ZM197.4,41.5h4.7v8h-32.6v-8h17.5v-22h-17.5v-8h27.9v30ZM218.8,49.5h-10.4V11.5h10.4v38ZM270.6,11.5v20.2c0,12.7-5.6,17.8-19,17.8h-20.9l-4.2-38h10.1l3.2,30h9.9c8.3,0,11-2.7,11-10.9V11.5h9.9ZM244.6,35.1V11.5h9.8v23.7h-9.8Z"/>
  <g class="st0">
    <path class="st5" d="M310.2,126c6.2,4.7,13.5,7.1,21.8,7.1s15.5-3.4,21.4-10.2c5.9-6.8,8.8-16.1,8.8-28s-1.9-15.5-5.8-21.2c-3.8-5.7-10.6-11.4-20.3-17-10.4-6.4-17.2-11.8-20.6-16.1-3.4-4.3-5-9.3-5-15s1.8-10.2,5.4-13.5c3.6-3.3,8.2-5,13.9-5s10.7,2.2,15,6.6c4.3,4.4,6.8,10.6,7.4,18.6h5.8V0h-5.6c0,3-.6,5.8-1.6,8.3-1.8-2.2-4.5-4.2-8-5.9-3.5-1.7-7.7-2.5-12.7-2.5-8.8,0-16.3,3.2-22.5,9.5-6.2,6.3-9.3,14.6-9.3,24.7s1.9,18.4,5.8,24.6c2.2,3.6,5.2,6.9,9,10.2,3.8,3.2,9.5,6.8,16.9,10.6,7.5,3.9,12.7,8,15.8,12.4,3.1,4.4,4.6,9.7,4.6,15.8s-.5,5.5-1.4,7.8c-3,6.8-8.8,10.2-17.6,10.2s-13-2.6-17.9-7.8c-4.9-5.2-8.2-12.1-9.7-20.5h-6.2v35.4h5.3c0-4.6.8-8.4,2.5-11.4,1.2,1.5,2.7,3,4.6,4.4"/>
  </g>
</svg>